<svg xmlns="http://www.w3.org/2000/svg" xmlns:xlink="http://www.w3.org/1999/xlink" version="1.1" class="marks" width="602" height="550" viewBox="0 0 602 550"><rect width="602" height="550" fill="white"/>

<g class="mark-shape role-mark layer_0_marks" role="graphics-symbol" aria-roledescription="shape mark container">

<path class="Kingsbridge - Riverdale" transform="translate(0,0)" d="M393.299,13.149L391.174,26.449L390.89,29.488L393.228,36.935L390.04,42.557L384.373,40.278L384.373,42.177L375.376,43.621L375.022,45.748L370.913,51.978L369.284,58.055L364.963,61.549L363.05,68.233L359.296,69.145L358.658,68.841L357.95,68.385L361.137,63.524L363.333,56.536L361.846,53.877L359.225,52.662L352.566,50.535L349.732,47.42L347.89,47.344L351.928,36.783L352.637,31.692L354.195,27.817L357.1,16.342L357.95,14.822L361.421,0L369.78,3.801Z" fill="lightgrey" stroke="#ffffff"/>
<path class="Northeast Bronx" transform="translate(0,0)" d="M454.434,34.428L454.08,37.315L450.183,38.607L448.767,39.746L447.775,46.964L445.791,53.573L445.933,59.119L448.554,61.321L449.333,67.93L450.396,69.145L448.412,72.411L450.183,72.639L452.805,70.436L450.821,73.246L446.571,75.449L443.595,75.904L442.391,72.183L439.203,75.449L436.866,74.841L432.048,75.601L420.926,74.082L408.884,75.069L408.955,74.234L409.663,53.117L414.338,41.95L414.693,41.038L405.483,37.163L409.38,27.133L400.525,24.625L391.174,26.449L393.299,13.149L396.841,14.061L411.363,19.533L411.009,17.33L413.347,16.418L413.134,14.137L416.959,10.717L420.218,10.717L424.894,12.997L425.531,14.822L428.79,14.974L430.844,20.977L430.49,23.713L432.048,27.817L446.429,33.136L446.783,31.54Z" fill="lightgrey" stroke="#ffffff"/>
<path class="Fordham - Bronx Pk" transform="translate(0,0)" d="M391.174,26.449L400.525,24.625L409.38,27.133L405.483,37.163L414.693,41.038L414.338,41.95L409.663,53.117L408.955,74.234L402.579,74.461L402.083,75.221L393.936,77.575L390.678,75.601L389.686,80.233L387.561,82.587L382.035,80.385L375.731,76.284L361.208,70.892L357.808,71.955L359.296,69.145L363.05,68.233L364.963,61.549L369.284,58.055L370.913,51.978L375.022,45.748L375.376,43.621L384.373,42.177L384.373,40.278L390.04,42.557L393.228,36.935L390.89,29.488Z" fill="lightgrey" stroke="#ffffff"/>
<path class="Pelham - Throgs Neck" transform="translate(0,0)" d="M387.702,121.005L386.711,116.754L388.057,106.354L389.686,106.126L390.04,103.62L391.174,100.735L398.895,102.102L407.892,105.746L406.05,100.356L407.254,100.204L406.121,96.028L407.254,95.724L403.146,91.092L400.029,93.37L399.32,92.004L399.604,81.6L400.029,78.866L402.083,75.221L402.579,74.461L408.955,74.234L408.884,75.069L420.926,74.082L432.048,75.601L436.866,74.841L439.203,75.449L442.391,72.183L443.595,75.904L446.571,75.449L450.821,73.246L452.805,70.436L454.434,70.816L454.363,73.854L450.892,75.828L452.805,79.626L452.096,82.815L453.725,85.397L452.379,92.079L454.505,98.533L452.805,100.735L453.655,107.796L456.205,113.11L454.93,115.463L457.48,117.741L460.668,115.843L461.872,116.45L463.076,122.826L465.414,125.711L470.656,127.456L467.185,132.162L464.139,132.845L465.981,135.046L474.836,139.751L477.74,140.207L478.094,142.635L475.19,143.091L472.781,140.738L467.964,137.778L465.343,137.702L459.109,132.01L453.159,130.872L448.483,131.935L443.312,134.06L438.849,134.591L437.716,137.778L438.211,142.332L432.615,140.89L429.781,133.225L430.348,130.189L430.065,123.054L426.098,128.291L424.043,134.819L421.068,133.073L420.147,137.778L422.343,141.8L417.81,140.89L416.109,142.408L412.992,141.8L411.505,134.97L408.317,135.502L403.429,135.046L400.666,130.72L393.653,127.381L390.749,124.952ZM450.183,38.607L454.08,37.315L454.434,34.428L475.332,41.494L473.348,44.837L471.435,52.358L469.806,52.206L465.414,59.65L466.902,64.967L471.365,56.08L474.057,55.017L475.473,49.851L474.552,48.711L478.024,45.672L480.078,47.572L482.841,47.496L483.266,50.307L480.928,55.017L484.328,55.244L484.824,58.131L482.77,60.03L478.094,61.018L475.828,65.043L476.89,70.284L474.127,73.474L474.34,76.132L470.515,78.107L470.444,83.651L468.814,87.144L464.493,78.79L465.485,77.499L463.572,69.601L460.951,72.411L458.33,68.233L455.567,66.487L454.292,67.702L453.017,64.967L454.859,61.625L450.963,58.739L448.129,58.739L447.633,55.548L450.042,54.789L448.271,49.699L449.617,46.812ZM480.007,78.107L480.29,79.929L483.478,83.271L485.603,86.992L484.895,92.535L486.595,95.041L486.737,99.293L484.399,101.57L481.778,97.395L477.528,88.435L479.37,83.271L476.394,76.968L479.582,73.626ZM502.534,78.031L500.197,78.79L498.638,81.069L499.276,83.802L498.355,87.751L497.009,88.435L497.292,84.79L495.804,82.36L495.804,71.955L497.505,71.879Z" fill="lightgrey" stroke="#ffffff"/>
<path class="Crotona - Treemont" transform="translate(0,0)" d="M359.296,69.145L357.808,71.955L361.208,70.892L375.731,76.284L382.035,80.385L387.561,82.587L389.686,80.233L390.678,75.601L393.936,77.575L402.083,75.221L400.029,78.866L399.604,81.6L399.32,92.004L400.029,93.37L403.146,91.092L407.254,95.724L406.121,96.028L407.254,100.204L406.05,100.356L407.892,105.746L398.895,102.102L391.174,100.735L390.04,103.62L389.119,103.165L385.79,109.314L379.981,106.733L379.485,105.518L378.635,102.937L375.447,105.594L370.701,103.241L371.338,101.722L366.025,99.293L361.421,98.685L360.783,100.052L359.083,97.622L360.5,92.383L357.879,89.042L357.029,88.587L350.086,90.637L345.128,89.042L347.961,83.727L349.095,82.132L348.67,82.739L351.362,77.955L351.432,77.803L351.645,77.347L352.778,75.297L353.203,74.689L353.487,74.234L353.841,73.854L354.408,73.018L357.95,68.385L358.658,68.841Z" fill="lightgrey" stroke="#ffffff"/>
<path class="Highbridge - Morrisania" transform="translate(0,0)" d="M345.128,89.042L350.086,90.637L357.029,88.587L357.879,89.042L360.5,92.383L359.083,97.622L360.783,100.052L361.421,98.685L366.025,99.293L371.338,101.722L370.701,103.241L375.447,105.594L373.109,109.466L368.363,124.572L366.663,125.635L354.833,121.232L351.928,129.961L340.877,138.461L340.098,134.06L340.523,123.889L339.956,114.552L338.965,106.202L339.673,103.013Z" fill="lightgrey" stroke="#ffffff"/>
<path class="Hunts Point - Motthaven" transform="translate(0,0)" d="M375.447,105.594L378.635,102.937L379.485,105.518L379.981,106.733L385.79,109.314L389.119,103.165L390.04,103.62L389.686,106.126L388.057,106.354L386.711,116.754L387.702,121.005L389.899,125.635L392.732,128.443L399.037,131.479L402.296,140.283L399.179,146.657L397.478,147.416L392.661,144.836L387.207,146.126L383.523,142.18L380.902,140.51L376.722,140.283L369.851,141.042L366.238,146.505L360.5,152.955L356.887,152.121L353.558,149.844L349.661,145.747L346.049,145.974L341.444,139.372L340.877,138.537L340.877,138.461L351.928,129.961L354.833,121.232L366.663,125.635L368.363,124.572L373.109,109.466Z" fill="lightgrey" stroke="#ffffff"/>

<path class="Greenpoint" transform="translate(0,0)" d="M348.528,258.966L346.261,258.891L343.073,258.057L332.376,261.619L322.175,262.907L323.096,269.879L316.083,275.865L316.508,278.213L310.841,279.426L311.479,276.698L306.52,271.47L304.749,267.908L303.544,265.029L306.024,255.708L310.203,247.219L311.762,244.945L311.691,242.444L313.32,238.957L311.337,236.38L310.628,230.088L316.437,226.752L320.759,226.601L330.889,231.149L333.297,236.607L335.352,238.73L341.019,240.473L344.844,242.975L348.386,251.236L349.449,255.101Z" fill={{fills[7]}} stroke="#ffffff"/>
<path class="Downtown - Heights - Slope" transform="translate(0,0)" d="M304.749,267.908L306.52,271.47L311.479,276.698L310.841,279.426L316.508,278.213L319.979,277.683L321.538,287.987L321.963,290.865L316.367,291.699L316.225,290.79L301.278,292.986L302.199,299.122L303.261,299.653L301.561,305.788L303.403,312.074L294.477,326.539L298.869,329.795L296.815,333.051L294.619,331.385L292.423,334.262L285.905,329.113L284.276,331.233L280.026,327.826L282.788,324.267L278.821,321.086L279.53,319.799L277.404,316.391L276.059,313.513L275.704,313.513L273.862,316.543L269.329,318.512L269.4,314.119L263.378,321.616L259.411,322.298L257.357,320.632L256.436,313.968L257.498,314.119L258.49,321.162L263.024,321.011L264.37,316.694L263.166,314.801L257.782,310.938L255.302,306.318L255.94,302.985L267.699,293.744L271.171,289.805L278.396,273.137L281.797,269.803L283.993,270.712L295.681,269.576L296.602,272.682L299.79,275.334L301.136,273.516L304.04,276.698L304.961,274.804L300.782,269.651L304.536,270.561Z" fill={{fills[8]}} stroke="#ffffff"/>
<path class="Bedford Stuyvesant - Crown Heights" transform="translate(0,0)" d="M356.249,294.805L368.434,303.97L368.434,308.287L372.614,329.34L372.755,331.536L368.788,334.186L361.421,335.625L351.078,335.246L350.724,335.246L341.161,324.04L333.085,323.207L330.251,324.494L330.535,320.632L325.151,320.253L325.505,315.709L318.138,315.179L311.054,313.286L312.683,323.964L310.77,323.282L304.536,311.847L303.403,312.074L301.561,305.788L303.261,299.653L302.199,299.122L301.278,292.986L316.225,290.79L316.367,291.699L321.963,290.865L321.538,287.987L327.488,287.153L329.189,298.365L354.478,294.577Z" fill={{fills[9]}} stroke="#ffffff"/>
<path class="East New York" transform="translate(0,0)" d="M410.159,334.868L410.23,335.019L407.254,333.505L404.917,329.643L397.903,333.581L396.274,331.233L391.528,333.808L397.549,344.786L397.337,344.937L396.132,347.133L392.803,341.833L391.811,342.439L389.119,335.171L385.223,337.442L386.569,339.941L383.806,341.985L380.335,340.925L378.918,339.184L377.502,340.471L373.818,336.079L373.251,333.505L372.755,331.536L372.614,329.34L368.434,308.287L368.434,303.97L356.249,294.805L363.263,285.411L368.363,289.199L369.851,287.153L371.409,292.077L370.701,292.456L375.235,299.425L377.643,295.941L379.131,298.213L381.894,297.077L383.877,294.88L387.632,292.456L391.953,288.138L397.053,284.35L402.508,283.744L402.366,284.729L404.562,298.441L406.758,299.501L407.467,303.743L408.388,303.591L410.371,313.74L412.992,313.21L414.905,323.207L412.213,323.737L413.063,328.053L407.679,330.4L408.671,332.218Z" fill={{fills[10]}} stroke="#ffffff"/>
<path class="Sunset Park" transform="translate(0,0)" d="M276.059,313.513L277.404,316.391L279.53,319.799L278.821,321.086L282.788,324.267L280.026,327.826L284.276,331.233L285.905,329.113L292.423,334.262L293.769,343.953L285.339,348.496L280.521,344.71L262.386,367.798L259.128,365.225L258.207,365.906L258.207,364.468L249.423,359.169L239.788,355.309L235.325,366.511L234.688,376.653L235.68,383.01L238.301,388.458L240.851,390.35L240.072,393.225L237.876,391.106L235.184,385.507L233.767,378.166L233.413,373.399L234.405,366.965L238.088,356.823L239.93,352.886L239.222,351.902L242.622,347.511L245.172,346.83L244.251,345.24L246.447,342.515L250.344,344.786L251.335,344.029L249.848,341.303L251.548,338.956L250.839,336.382L257.569,328.659L259.199,329.946L261.536,328.205L260.615,326.16L265.928,322.904L269.329,325.327L269.4,321.011L273.792,324.267L275.138,322.601L271.879,319.95L275.563,316.77ZM269.329,318.512L273.862,316.543L275.704,313.513L274.571,317.148Z" fill={{fills[11]}} stroke="#ffffff"/>
<path class="Borough Park" transform="translate(0,0)" d="M319.767,390.955L287.039,395.722L287.039,394.511L273.862,384.069L277.334,379.756L262.386,367.798L280.521,344.71L285.339,348.496L293.769,343.953L292.423,334.262L294.619,331.385L296.815,333.051L298.869,329.795L299.79,331.006L302.482,343.196L305.882,341.455L308.362,358.488L309.708,361.894L315.162,358.488Z" fill={{fills[12]}} stroke="#ffffff"/>
<path class="East Flatbush - Flatbush" transform="translate(0,0)" d="M303.403,312.074L304.536,311.847L310.77,323.282L312.683,323.964L311.054,313.286L318.138,315.179L325.505,315.709L325.151,320.253L330.535,320.632L330.251,324.494L333.085,323.207L341.161,324.04L350.724,335.246L351.078,335.246L351.574,336.382L352.707,350.312L346.474,356.141L338.539,361.213L339.39,371.809L336.273,376.275L333.014,377.864L328.338,384.372L322.6,390.577L319.767,390.955L315.162,358.488L309.708,361.894L308.362,358.488L305.882,341.455L302.482,343.196L299.79,331.006L298.869,329.795L294.477,326.539Z" fill={{fills[13]}} stroke="#ffffff"/>
<path class="Canarsie - Flatlands" transform="translate(0,0)" d="M372.755,331.536L373.251,333.505L373.818,336.079L377.502,340.471L378.918,339.184L380.335,340.925L383.806,341.985L386.569,339.941L385.223,337.442L389.119,335.171L391.811,342.439L392.803,341.833L396.132,347.133L397.337,344.937L402.791,355.914L402.579,357.125L397.691,360.683L395.353,359.169L393.157,360.834L388.694,366.663L384.231,371.507L382.319,372.188L381.823,375.745L380.123,376.956L375.305,375.896L374.739,377.334L384.16,392.771L380.052,393.074L373.251,398.294L373.039,399.959L386.498,398.9L395.212,425.149L391.953,430.066L383.877,432.94L375.589,434.528L370.134,429.461L366.734,428.024L368.009,426.662L372.118,430.141L374.88,429.007L375.022,426.662L371.763,419.628L367.726,421.443L362.979,422.048L361.633,423.788L359.154,423.259L360.712,428.856L358.8,428.629L356.533,424.847L343.144,409.037L344.49,407.751L339.248,401.472L342.861,398.521L339.319,394.284L336.839,392.771L335.352,394.057L333.652,391.939L328.551,386.037L328.338,384.372L333.014,377.864L336.273,376.275L339.39,371.809L338.539,361.213L346.474,356.141L352.707,350.312L351.574,336.382L351.078,335.246L361.421,335.625L368.788,334.186ZM397.549,344.786L391.528,333.808L396.274,331.233L397.903,333.581L404.917,329.643L407.254,333.505L410.23,335.019L410.796,335.701L410.796,335.776L412.284,337.518L413.984,340.849L412.922,341.758L412.355,347.133L407.254,348.344L405.483,347.284L401.304,347.89L398.612,346.906Z" fill={{fills[14]}} stroke="#ffffff"/>
<path class="Bensonhurst - Bay Ridge" transform="translate(0,0)" d="M240.072,393.225L240.851,390.35L238.301,388.458L235.68,383.01L234.688,376.653L235.325,366.511L239.788,355.309L249.423,359.169L258.207,364.468L258.207,365.906L259.128,365.225L262.386,367.798L277.334,379.756L273.862,384.069L287.039,394.511L287.039,395.722L291.36,425.679L288.526,428.704L286.897,430.066L282.151,428.629L283.78,424.469L278.68,427.419L274.571,426.133L276.2,423.334L274.217,421.065L276.625,419.779L276.129,417.056L277.546,416.073L275.492,414.03L273.792,414.56L271.383,409.794L263.024,403.742L260.332,402.38L256.436,402.002L255.232,400.867L246.235,399.051L241.701,395.949Z" fill={{fills[15]}} stroke="#ffffff"/>
<path class="Coney Island - Sheepshead Bay" transform="translate(0,0)" d="M328.338,384.372L328.551,386.037L333.652,391.939L335.352,394.057L336.839,392.771L339.319,394.284L342.861,398.521L339.248,401.472L344.49,407.751L343.144,409.037L356.533,424.847L352.92,425.679L346.615,425.074L341.656,426.965L337.406,426.36L324.867,426.133L319.909,426.738L320.05,427.948L323.521,427.57L328.976,428.856L340.31,429.082L341.656,435.511L337.902,436.57L329.189,435.965L321.042,438.007L318.917,437.553L309.566,438.536L301.419,439.973L296.602,441.41L285.197,441.712L283.709,442.544L277.546,442.695L263.662,438.234L262.316,432.41L264.582,429.99L273.862,428.629L274.996,429.612L287.039,431.73L288.526,428.704L291.36,425.679L287.039,395.722L319.767,390.955L322.6,390.577Z" fill={{fills[16]}} stroke="#ffffff"/>
<path class="Williamsburg - Bushwick" transform="translate(0,0)" d="M316.508,278.213L316.083,275.865L323.096,269.879L322.175,262.907L332.376,261.619L343.073,258.057L346.261,258.891L348.528,258.966L351.645,263.438L350.582,264.877L360.358,272.531L359.366,273.895L361.421,275.561L360.358,277.001L367.726,282.38L366.167,284.426L369.851,287.153L368.363,289.199L363.263,285.411L356.249,294.805L354.478,294.577L329.189,298.365L327.488,287.153L321.538,287.987L319.979,277.683Z" fill={{fills[17]}} stroke="#ffffff"/>

<path class="Washington Heights" transform="translate(0,0)" d="M338.327,102.482L334.218,106.809L333.297,111.06L329.259,118.348L328.268,117.817L325.151,126.697L322.388,125.104L321.042,126.622L314.666,123.054L315.375,119.183L314.029,118.348L317.146,112.806L318.35,113.49L323.521,103.165L327.205,91.472L326.142,83.802L328.409,82.056L334.856,72.487L339.673,63.22L341.231,54.409L344.207,49.547L349.945,49.091L350.086,52.662L351.716,54.789L354.833,52.965L360.712,54.561L361.562,55.7L360.287,61.853L357.312,67.094L352.92,73.17L351.928,72.791L350.441,77.12L342.577,91.776ZM348.67,82.739L349.095,82.132L347.961,83.727ZM353.487,74.234L354.408,73.018L353.841,73.854Z" fill="lightgrey" stroke="#ffffff"/>
<path class="Central Harlem - Morningside Heights" transform="translate(0,0)" d="M338.894,138.082L336.202,138.082L333.085,136.412L330.322,141.345L331.881,142.18L330.11,145.367L328.551,144.532L324.017,152.652L320.829,150.907L315.304,147.947L312.541,146.354L314.241,140.89L311.62,141.649L308.857,140.131L309.778,138.461L305.528,136.109L309.495,128.443L315.375,119.183L314.666,123.054L321.042,126.622L322.388,125.104L325.151,126.697L328.268,117.817L329.259,118.348L333.297,111.06L334.218,106.809L338.327,102.482L337.619,107.34L338.965,124.724Z" fill="lightgrey" stroke="#ffffff"/>
<path class="East Harlem" transform="translate(0,0)" d="M324.017,152.652L328.551,144.532L330.11,145.367L331.881,142.18L330.322,141.345L333.085,136.412L336.202,138.082L338.894,138.082L341.798,142.559L343.711,147.568L343.498,154.625L337.831,159.329L333.864,166.916L329.614,171.012L317.642,164.184ZM356.675,158.949L350.795,166.385L349.165,169.95L346.474,170.633L344.844,172.985L337.335,169.874L337.194,167.143L341.515,160.846L344.986,159.101L346.049,155.763L345.765,148.706L347.253,146.202L349.732,146.202L351.928,149.465L357.595,154.093L357.808,157.66Z" fill="lightgrey" stroke="#ffffff"/>
<path class="Upper West Side" transform="translate(0,0)" d="M305.528,136.109L309.778,138.461L308.857,140.131L311.62,141.649L314.241,140.89L312.541,146.354L315.304,147.947L292.493,189.217L291.785,190.506L289.518,188.155L281.159,183.68L278.68,182.011L281.088,182.315L292.281,160.77Z" fill="lightgrey" stroke="#ffffff"/>
<path class="Upper East Side" transform="translate(0,0)" d="M315.233,201.579L301.348,193.692L317.642,164.184L329.614,171.012L329.472,173.971L330.818,178.75L330.322,181.025L326.78,185.349L321.75,193.616ZM313.675,212.119L313.32,210.224L321.467,198.394L326.497,189.748L330.889,184.59L332.801,186.032L330.18,189.369L320.829,203.702Z" fill="lightgrey" stroke="#ffffff"/>
<path class="Chelsea - Clinton" transform="translate(0,0)" d="M278.68,182.011L281.159,183.68L289.518,188.155L291.785,190.506L292.493,189.217L292.777,189.976L300.357,194.147L301.348,193.692L286.189,221.218L283.001,219.474L280.38,224.326L283.497,226.07L277.688,236.683L278.042,239.033L273.792,236.304L275.138,233.803L272.304,225.994L265.645,222.279L266.424,214.773L265.007,214.242L266.849,208.556L273.508,196.346L275.917,193.995L278.255,187.093L280.663,183.529Z" fill="lightgrey" stroke="#ffffff"/>
<path class="Gramercy Park - Murray Hill" transform="translate(0,0)" d="M300.357,235.925L289.731,229.557L290.156,228.799L284.63,226.752L283.497,226.07L280.38,224.326L283.001,219.474L286.189,221.218L301.348,193.692L315.233,201.579L306.591,214.697L302.269,221.749L301.419,225.994L301.773,231.149L300.002,233.424Z" fill="lightgrey" stroke="#ffffff"/>
<path class="Greenwich Village - SoHo" transform="translate(0,0)" d="M265.645,222.279L272.304,225.994L275.138,233.803L273.792,236.304L278.042,239.033L282.93,242.141L279.105,254.798L277.121,258.966L276.129,259.724L270.25,256.087L268.195,255.708L266.991,257.754L262.174,254.874L262.103,252.373L263.662,240.701L260.757,240.246L261.04,237.593L263.874,237.896L264.582,226.752Z" fill="lightgrey" stroke="#ffffff"/>
<path class="Union Square - Lower East Side" transform="translate(0,0)" d="M283.497,226.07L284.63,226.752L290.156,228.799L289.731,229.557L300.357,235.925L302.624,239.412L301.207,249.796L298.161,259.649L295.965,263.134L292.918,264.347L284.843,265.559L282.576,264.726L278.538,265.18L277.121,258.966L279.105,254.798L282.93,242.141L278.042,239.033L277.688,236.683Z" fill="lightgrey" stroke="#ffffff"/>
<path class="Lower Manhattan" transform="translate(0,0)" d="M262.103,252.373L262.174,254.874L266.991,257.754L268.195,255.708L270.25,256.087L276.129,259.724L277.121,258.966L278.538,265.18L282.576,264.726L277.05,265.862L271.95,269.424L268.904,272.606L263.662,276.092L259.624,276.546L257.144,272.834L257.994,270.788L256.082,270.788L257.428,261.467L257.286,257.678L258.348,251.767ZM258.915,285.562L262.528,288.062L262.67,290.562L252.115,297.153L248.998,295.714L249.423,294.426L255.09,287.229L255.515,285.941Z" fill="lightgrey" stroke="#ffffff"/>

<path class="Long Island City - Astoria" transform="translate(0,0)" d="M369.851,174.198L375.943,172.681L378.777,177.991L377.997,181.784L368.505,192.403L362.271,202.641L359.579,205.219L358.729,208.328L361.421,209.011L362.696,212.044L361.988,214.773L357.595,214.091L356.391,222.204L355.47,222.052L349.449,225.085L348.67,231.377L345.978,238.048L341.019,240.473L335.352,238.73L333.297,236.607L330.889,231.149L320.759,226.601L316.437,226.752L310.628,230.088L312.258,220.687L316.012,214.242L322.034,205.826L329.33,194.071L332.447,190.279L336.343,187.397L337.619,184.97L334.927,183.908L334.572,181.253L337.619,176.778L340.877,176.55L340.948,178.143L344.632,178.522L355.966,165.854L364.821,173.819L368.363,174.047Z" fill="lightgrey" stroke="#ffffff"/>
<path class="West Queens" transform="translate(0,0)" d="M407.75,191.265L410.938,196.422L415.401,199.456L420.006,200.517L424.114,198.166L427.656,194.071L430.773,193.54L432.828,196.65L431.269,203.172L432.119,207.039L427.515,207.418L418.589,209.238L419.155,212.878L416.109,214.167L420.36,224.933L424.752,225.767L420.856,228.193L406.404,233.424L403.358,233.348L399.604,239.412L397.408,237.896L391.74,240.246L384.302,241.61L384.373,244.491L382.531,245.097L385.011,249.19L369.072,259.194L369.001,260.482L348.528,258.966L349.449,255.101L348.386,251.236L344.844,242.975L341.019,240.473L345.978,238.048L348.67,231.377L349.449,225.085L355.47,222.052L356.391,222.204L357.595,214.091L361.988,214.773L362.696,212.044L361.421,209.011L358.729,208.328L359.579,205.219L362.271,202.641L368.505,192.403L377.997,181.784L381.894,183.225L382.106,183.301L383.806,190.734L386.711,189.976L393.866,185.349L396.841,184.363L401.375,185.501ZM383.665,150.982L387.49,154.549L392.59,155.839L396.912,159.101L399.958,163.198L399.745,165.398L397.408,166.46L392.236,166.991L382.531,164.867L381.256,161.15L379.698,161.074L379.343,158.494L381.185,151.438Z" fill="lightgrey" stroke="#ffffff"/>
<path class="Flushing - Clearview" transform="translate(0,0)" d="M503.384,182.315L500.338,180.494L495.45,182.163L494.954,179.736L493.113,180.343L493.467,182.467L489.571,183.604L479.37,187.549L483.337,197.105L484.399,201.276L488.366,209.617L487.233,210.906L476.465,214.773L474.057,214.849L472.427,212.953L470.94,214.47L466.264,214.015L459.18,222.734L458.968,227.131L454.363,226.601L444.233,222.204L434.032,220.839L431.482,223.417L433.111,225.767L432.119,230.846L425.319,230.164L424.752,225.767L420.36,224.933L416.109,214.167L419.155,212.878L418.589,209.238L427.515,207.418L432.119,207.039L431.269,203.172L432.828,196.65L430.348,192.175L426.027,193.009L422.627,190.962L420.856,187.473L421.706,182.542L421.068,171.164L415.188,171.543L412.567,169.571L411.363,166.84L413.984,165.702L416.109,161.15L417.88,160.087L416.818,156.446L417.88,155.611L421.139,157.204L421.564,154.776L424.043,153.638L425.673,155.232L429.569,152.803L431.694,152.803L433.536,158.342L433.04,162.06L436.511,163.502L437.786,161.377L441.541,158.267L440.62,153.259L445.65,151.514L449.688,147.568L456.276,152.652L457.338,151.286L459.18,152.955L465.91,152.955L473.773,155.156L473.915,159.329L475.261,162.819L478.519,161.301L484.116,161.377L486.595,160.694L487.374,155.914L486.454,153.942L490.279,152.803L492.758,154.321L495.804,159.48L497.292,163.426L494.104,165.778L500.551,175.109Z" fill="lightgrey" stroke="#ffffff"/>
<path class="Bayside - Little Neck" transform="translate(0,0)" d="M553.256,200.442L553.043,200.517L549.572,200.897L545.534,204.006L543.834,208.859L539.867,211.361L535.121,221.37L528.108,225.994L525.77,229.557L520.882,231.074L498,236.228L495.379,230.467L490.066,214.47L488.65,210.375L487.233,210.906L488.366,209.617L484.399,201.276L483.337,197.105L479.37,187.549L489.571,183.604L493.467,182.467L493.113,180.343L494.954,179.736L495.45,182.163L500.338,180.494L503.384,182.315L509.264,190.355L514.435,192.933L512.027,185.273L514.152,183.832L512.523,178.902L513.373,174.881L516.773,170.633L533.066,184.135L538.238,187.928Z" fill="lightgrey" stroke="#ffffff"/>
<path class="Ridgewood - Forest Hills" transform="translate(0,0)" d="M443.383,257.299L438.637,258.436L433.89,261.77L435.945,264.044L432.048,268.439L433.111,271.546L425.248,277.759L421.635,278.971L419.51,275.94L416.393,275.94L417.739,280.032L402.508,283.744L397.053,284.35L391.953,288.138L387.632,292.456L383.877,294.88L381.894,297.077L379.131,298.213L377.643,295.941L375.235,299.425L370.701,292.456L371.409,292.077L369.851,287.153L366.167,284.426L367.726,282.38L360.358,277.001L361.421,275.561L359.366,273.895L360.358,272.531L350.582,264.877L351.645,263.438L348.528,258.966L369.001,260.482L369.072,259.194L385.011,249.19L382.531,245.097L384.373,244.491L384.302,241.61L391.74,240.246L397.408,237.896L399.604,239.412L403.358,233.348L406.404,233.424L420.856,228.193L424.752,225.767L425.319,230.164L426.665,234.257L432.332,242.671L434.528,242.292L433.536,246.764L434.457,248.811L438.778,254.647L440.195,257.905Z" fill="lightgrey" stroke="#ffffff"/>
<path class="Freshmeadows" transform="translate(0,0)" d="M487.233,210.906L488.65,210.375L490.066,214.47L495.379,230.467L498,236.228L487.304,239.488L475.473,244.566L460.243,251.388L443.737,257.148L443.383,257.299L440.195,257.905L438.778,254.647L434.457,248.811L433.536,246.764L434.528,242.292L432.332,242.671L426.665,234.257L425.319,230.164L432.119,230.846L433.111,225.767L431.482,223.417L434.032,220.839L444.233,222.204L454.363,226.601L458.968,227.131L459.18,222.734L466.264,214.015L470.94,214.47L472.427,212.953L474.057,214.849L476.465,214.773Z" fill="lightgrey" stroke="#ffffff"/>
<path class="Southwest Queens" transform="translate(0,0)" d="M438.07,321.541L440.833,330.93L442.958,341.152L434.315,341.909L431.269,326.766L430.348,327.523L434.103,346.754L420.856,348.42L418.66,346.224L418.589,344.029L421.21,339.638L416.393,340.319L414.48,336.836L413.276,337.064L410.088,332.066L408.671,332.218L407.679,330.4L413.063,328.053L412.213,323.737L414.905,323.207L412.992,313.21L410.371,313.74L408.388,303.591L407.467,303.743L406.758,299.501L404.562,298.441L402.366,284.729L402.508,283.744L417.739,280.032L416.393,275.94L419.51,275.94L421.635,278.971L425.248,277.759L433.111,271.546L432.048,268.439L435.945,264.044L433.89,261.77L438.637,258.436L443.383,257.299L443.737,257.148L445.791,260.331L445.579,262.301L448.908,265.029L454.788,277.607L463.076,296.32L466.973,306.848L468.389,312.226L468.035,319.496L458.968,319.117L457.267,323.964L452.379,322.828L452.167,321.919L446.429,320.253L443.666,321.541ZM410.796,335.701L410.23,335.019L410.159,334.868Z" fill="lightgrey" stroke="#ffffff"/>
<path class="Jamaica" transform="translate(0,0)" d="M503.88,335.322L500.692,333.202L498.638,333.505L491.837,328.356L482.416,323.434L472.427,321.995L469.594,324.797L464.21,326.539L466.902,321.389L463.005,321.844L461.73,327.22L457.338,326.387L457.692,324.721L454.576,325.024L445.579,323.585L442.604,323.434L438.07,321.541L443.666,321.541L446.429,320.253L452.167,321.919L452.379,322.828L457.267,323.964L458.968,319.117L468.035,319.496L468.389,312.226L466.973,306.848L463.076,296.32L454.788,277.607L448.908,265.029L445.579,262.301L445.791,260.331L443.737,257.148L460.243,251.388L475.473,244.566L487.304,239.488L498,236.228L503.172,245.324L508.343,249.948L513.94,259.876L522.157,284.426L517.836,292.532L512.594,295.562L511.602,293.896L506.076,296.32L509.122,303.819L508.131,304.273L509.902,307.454L505.439,309.954L503.88,311.696L505.297,314.422L504.447,320.102L501.826,328.053L502.251,333.808Z" fill="lightgrey" stroke="#ffffff"/>
<path class="Southeast Queens" transform="translate(0,0)" d="M498,236.228L520.882,231.074L525.77,229.557L528.108,225.994L535.121,221.37L539.867,211.361L543.834,208.859L545.534,204.006L549.572,200.897L553.043,200.517L553.256,200.442L564.519,209.617L565.865,226.752L558.427,241.307L548.368,243.581L541.213,246.082L536.679,248.508L537.813,252.373L540.08,264.498L540.717,291.471L541.284,303.061L539.371,309.954L538.663,317.83L538.592,325.1L541.071,331.763L541.709,337.669L536.821,340.168L532.925,340.698L525.841,344.937L525.061,353.643L522.511,355.687L524.495,353.946L520.882,347.587L510.043,339.941L509.264,339.335L503.88,335.322L502.251,333.808L501.826,328.053L504.447,320.102L505.297,314.422L503.88,311.696L505.439,309.954L509.902,307.454L508.131,304.273L509.122,303.819L506.076,296.32L511.602,293.896L512.594,295.562L517.836,292.532L522.157,284.426L513.94,259.876L508.343,249.948L503.172,245.324Z" fill="lightgrey" stroke="#ffffff"/>
<path class="Rockaways" transform="translate(0,0)" d="M512.877,392.014L514.223,391.56L514.648,391.333L520.244,389.366L521.024,389.971L521.732,389.593L523.999,395.344L529.028,401.472L529.099,411.61L522.015,411.231L514.081,416.602L493.608,416.753L481.424,419.779L477.882,420.989L462.793,423.864L439.557,432.486L435.803,433.545L424.894,438.612L408.175,447.762L405.554,447.989L392.095,454.038L379.768,458.499L371.834,460.691L368.434,460.313L359.721,461.976L344.419,467.344L336.556,469.385L335.281,464.698L335.352,460.389L337.477,457.062L346.474,454.869L348.315,453.66L354.62,452.979L360.146,449.652L364.113,451.618L371.268,451.996L375.589,449.274L376.368,447.232L379.414,444.964L382.602,445.947L386.569,445.04L393.015,444.964L404.067,437.553L407.821,435.36L418.235,428.175L421.564,427.419L425.106,428.251L430.561,427.948L441.258,424.091L441.47,423.032L447.35,420.914L448.483,421.368L459.463,413.879L462.368,409.567L464.635,410.248L464.21,406.995L465.414,405.255L470.16,405.936L475.969,404.725L481.424,399.202L482.557,400.715L478.519,405.482L477.669,411.08L479.44,411.08L478.874,408.81L484.824,399.808L483.903,398.294L486.808,395.344L487.729,392.544L493.396,392.166L495.025,395.722L492.475,401.699L490.137,404.347L486.666,406.011L488.012,407.827L490.066,406.995L492.333,402.758L495.734,407.751L498.142,406.39L497.505,398.748L498.992,392.922L494.884,390.501L495.309,387.02L501.047,386.793L502.888,389.442L512.523,391.409ZM447.208,359.623L448.058,365.981L449.404,370.296L451.884,369.69L452.45,374.534L449.971,374.08L450.396,377.41L453.3,378.166L451.529,381.572L453.017,387.474L455.001,386.415L455.496,389.139L453.23,388.458L454.292,396.1L452.238,399.959L450.254,408.13L444.941,411.761L440.833,410.55L437.291,411.231L435.378,408.886L445.295,404.423L446.712,401.623L447.208,398.143L450.113,392.544L445.862,392.317L443.879,386.339L442.604,387.853L438.778,385.356L435.945,387.701L431.411,384.826L431.836,383.085L434.528,382.48L433.961,380.134L436.936,377.637L439.203,372.869L436.795,368.858L438.778,363.559L437.291,359.169L437.149,355.309L441.966,359.926L445.862,358.412Z" fill="lightgrey" stroke="#ffffff"/>

<path class="Port Richmond" transform="translate(0,0)" d="M169.94,346.3L171.215,348.344L173.624,360.607L171.144,360.683L173.411,375.442L167.744,378.469L164.556,375.518L160.943,373.626L158.322,377.183L156.055,374.004L145.642,375.215L144.65,376.653L141.25,374.685L140.966,377.334L137.07,376.729L136.433,383.691L133.67,383.312L134.237,378.696L130.907,377.788L133.387,373.096L130.128,372.945L129.561,375.669L124.957,380.21L123.894,379.377L115.464,377.939L114.897,379.604L102.925,372.415L101.296,373.399L93.574,366.436L84.436,359.85L87.128,354.779L94.92,348.117L101.084,347.36L100.942,349.783L103.988,349.253L105.83,347.36L111.71,352.129L116.668,351.978L119.077,353.492L126.373,355.309L129.42,355.384L140.966,352.508L144.154,351.07L149.821,352.129L150.884,353.568L154.497,353.492L159.668,350.237L166.965,346.679Z" fill="lightgrey" stroke="#ffffff"/>
<path class="Stapleton - St. George" transform="translate(0,0)" d="M186.375,447.384L184.533,445.72L188.642,440.049L191.334,438.007L185.95,434.452L184.816,430.141L180.495,427.494L179.787,428.251L175.749,424.771L175.041,425.301L177.378,420.611L175.607,419.401L168.594,427.116L164.273,430.141L162.219,432.637L159.81,432.864L158.96,429.082L153.434,422.653L157.543,420.157L162.077,410.323L166.54,408.432L162.927,402.531L166.823,396.706L166.611,392.771L163.706,390.123L163.069,381.799L160.022,382.177L158.322,377.183L160.943,373.626L164.556,375.518L167.744,378.469L173.411,375.442L171.144,360.683L173.624,360.607L171.215,348.344L169.94,346.3L174.899,345.997L177.52,346.83L183.612,345.997L190.909,342.363L194.805,342.666L198.701,341.606L201.747,342.893L203.164,346.603L204.298,345.695L207.202,350.085L207.414,364.392L207.91,369.917L208.973,373.096L214.215,381.799L212.586,383.388L214.924,385.961L216.128,389.971L220.732,396.479L224.77,398.975L222.149,405.86L216.624,412.366L210.956,418.191L199.622,431.956L187.792,444.283L188.925,444.964Z" fill="lightgrey" stroke="#ffffff"/>
<path class="Willowbrook" transform="translate(0,0)" d="M84.436,359.85L93.574,366.436L101.296,373.399L102.925,372.415L114.897,379.604L115.464,377.939L123.894,379.377L124.957,380.21L129.561,375.669L130.128,372.945L133.387,373.096L130.907,377.788L134.237,378.696L133.67,383.312L136.433,383.691L137.07,376.729L140.966,377.334L141.25,374.685L144.65,376.653L145.642,375.215L156.055,374.004L158.322,377.183L160.022,382.177L163.069,381.799L163.706,390.123L166.611,392.771L166.823,396.706L162.927,402.531L166.54,408.432L162.077,410.323L157.543,420.157L153.434,422.653L149.255,425.225L147.625,427.419L143.304,429.536L141.887,432.788L131.049,436.116L132.324,439.595L131.049,442.242L129.349,441.561L109.726,442.242L102.855,442.922L100.588,440.729L96.196,438.309L94.991,434.982L89.82,434.679L85.286,431.2L76.998,429.99L74.66,430.519L76.856,423.712L76.502,418.191L82.948,408.962L83.161,404.952L84.507,402.002L82.098,396.327L85.003,387.626L83.799,384.22L80.044,383.918L79.194,380.588L78.84,374.761L79.336,367.344L81.036,362.954ZM79.69,386.793L82.24,387.02L83.019,389.139L81.177,393.074L80.257,400.262L77.919,397.386L78.131,388.08Z" fill="lightgrey" stroke="#ffffff"/>
<path class="South Beach - Tottenville" transform="translate(0,0)" d="M153.434,422.653L158.96,429.082L159.81,432.864L162.219,432.637L164.273,430.141L168.594,427.116L175.607,419.401L177.378,420.611L175.041,425.301L175.749,424.771L179.787,428.251L180.495,427.494L184.816,430.141L185.95,434.452L191.334,438.007L188.642,440.049L184.533,445.72L186.375,447.384L183.187,452.223L182.054,452.072L179.291,456.835L176.245,458.045L172.845,465.001L170.932,463.64L168.665,465.227L165.123,471.653L161.298,471.653L155.276,476.567L149.821,485.108L145.642,490.701L141.392,494.253L138.487,489.945L139.125,487.98L144.367,487.753L150.317,480.875L150.672,477.701L147.98,473.997L143.658,473.165L138.133,476.793L137.283,478.834L136.645,485.184L129.561,489.718L126.515,493.875L122.973,496.294L115.606,499.165L113.41,502.49L109.726,504.38L108.026,503.7L101.934,507.931L96.55,507.024L93.433,509.971L88.191,517.754L84.436,520.323L80.257,517.3L75.652,517.376L70.622,519.038L69.205,524.327L66.23,526.064L63.892,530.37L56.383,531.73L53.266,530.522L49.654,530.673L44.907,533.014L42.64,535.885L40.019,537.396L35.273,538L31.944,537.169L27.481,529.237L26.135,522.891L28.118,520.398L29.818,514.58L33.715,511.483L35.344,512.163L37.327,508.838L40.161,508.082L38.319,505.513L38.036,500.903L39.878,493.044L39.382,488.963L35.769,485.486L36.619,483.672L35.061,478.759L33.644,477.776L35.131,474.828L38.107,471.956L39.311,472.938L45.687,466.815L47.245,466.437L52.133,461.372L55.037,460.918L63.467,462.354L66.726,460.54L69.56,455.021L69.418,449.577L72.039,441.637L74.093,440.049L78.84,440.351L81.39,438.007L82.453,432.562L88.403,435.435L89.82,434.679L94.991,434.982L96.196,438.309L100.588,440.729L102.855,442.922L109.726,442.242L129.349,441.561L131.049,442.242L132.324,439.595L131.049,436.116L141.887,432.788L143.304,429.536L147.625,427.419L149.255,425.225ZM75.439,438.687L72.96,439.065L74.377,431.73L76.431,430.519L80.894,431.805L79.761,438.46Z" fill="lightgrey" stroke="#ffffff"/>

<path class="Other Stuff" transform="translate(0,0)" d="M438.07,321.541L442.604,323.434L445.579,323.585L454.576,325.024L457.692,324.721L457.338,326.387L461.73,327.22L463.005,321.844L466.902,321.389L464.21,326.539L469.594,324.797L472.427,321.995L482.416,323.434L491.837,328.356L498.638,333.505L500.692,333.202L503.88,335.322L509.264,339.335L510.043,339.941L520.882,347.587L524.495,353.946L522.511,355.687L521.094,351.902L518.119,347.511L513.302,343.65L512.948,344.332L518.827,349.48L519.961,351.675L518.969,359.396L515.215,361.97L501.613,368.555L499.417,373.853L499.63,375.896L497.434,379.983L496.3,379.226L496.796,375.518L491.696,369.917L488.295,369.69L483.337,377.864L480.29,376.047L485.745,368.101L485.816,366.209L476.536,359.169L452.805,345.997L451.034,345.467L447.917,341.758L446.287,335.095L447.208,329.265L450.608,326.842L456.559,328.053L456.842,326.917L450.821,325.478L446.146,328.205L444.729,334.111L446.783,343.348L442.958,341.152L440.833,330.93ZM315.304,147.947L320.829,150.907L324.017,152.652L317.642,164.184L301.348,193.692L300.357,194.147L292.777,189.976L292.493,189.217ZM407.75,191.265L401.375,185.501L396.841,184.363L393.866,185.349L386.711,189.976L383.806,190.734L382.106,183.301L386.852,181.86L386.569,174.274L392.378,173.44L392.945,170.481L396.203,172.226L399.745,166.688L401.516,169.798L398.399,173.667L413.347,183.149L415.472,183.984L413.772,188.383L410.796,191.113ZM368.363,174.047L364.821,173.819L355.966,165.854L356.887,163.957L361.633,160.239L365.955,161.377L367.513,164.716L369.567,162.06L376.156,167.674L373.251,171.012L370.418,170.785ZM381.894,183.225L377.997,181.784L378.777,177.991L375.943,172.681L369.851,174.198L370.772,172.074L374.81,170.481L380.76,176.55L379.627,180.039ZM514.648,391.333L514.223,391.56L512.877,392.014Z" fill="lightgrey" stroke="#ffffff"/></g>

</svg>